<svg xmlns="http://www.w3.org/2000/svg" viewBox="0 0 305.1582 86.6025">
  <title>BitBrew Logo</title>
  <path
    fill="#02d298"
    d="M30 17.32L0 0v34.641L30 17.32v34.642L0 69.282l30 17.321 30-17.321V34.641L30 17.32z"
  />
  <path d="M99.945 34.641c4.701 0 6.93 2.227 6.93 9.254 0 4.652-.843 6.432-3.119 7.67 2.474 1.09 3.513 3.019 3.513 8.066 0 7.424-2.226 9.651-6.927 9.651H81.833v-34.64zm-1.187 13.856c.742 0 .99-.247.99-3.711s-.248-3.712-.99-3.712h-9.799v7.423zm.396 14.352c.742 0 .99-.247.99-4.107s-.248-4.108-.99-4.108H88.959v8.215zM115.394 34.641h7.126v34.641h-7.126zM146.663 41.074v28.208h-7.126V41.074h-9.403v-6.433h25.932v6.433zM181.846 34.641c4.701 0 6.93 2.227 6.93 9.254 0 4.652-.843 6.432-3.119 7.67 2.474 1.09 3.513 3.019 3.513 8.066 0 7.424-2.226 9.651-6.927 9.651h-18.509v-34.64zm-1.187 13.856c.742 0 .99-.247.99-3.711s-.248-3.712-.99-3.712h-9.799v7.423zm.396 14.352c.742 0 .99-.247.99-4.107s-.248-4.108-.99-4.108H170.86v8.215zM216.054 69.282l-5.74-12.224h-5.74v12.224h-7.127v-34.64h18.261c4.701 0 6.928 2.226 6.928 6.927v8.364c0 3.909-1.534 6.135-4.8 6.729l5.89 12.62zm-1.533-18.559c.742 0 .99-.247.99-.99v-7.67c0-.742-.248-.99-.99-.99h-9.948v9.65zM255.077 34.641v6.532h-16.182v7.175h13.115v6.433h-13.114v7.968h16.182v6.533h-23.309v-34.64zM288.926 69.282l-5.69-22.568-5.691 22.568h-7.87l-8.66-34.641h7.423l5.395 25.436 6.384-25.436h6.037l6.384 25.436 5.394-25.436h7.126l-8.71 34.641z" />
</svg>
