<?xml version="1.0" standalone="no"?>
<!DOCTYPE svg PUBLIC "-//W3C//DTD SVG 20010904//EN"
 "http://www.w3.org/TR/2001/REC-SVG-20010904/DTD/svg10.dtd">
<svg version="1.0" xmlns="http://www.w3.org/2000/svg"
 width="16.000000pt" height="16.000000pt" viewBox="0 0 16.000000 16.000000"
 preserveAspectRatio="xMidYMid meet">
<metadata>
Created by potrace 1.11, written by Peter Selinger 2001-2013
</metadata>
<g transform="translate(0.000000,16.000000) scale(0.001149,-0.001149)"
fill="#000000" stroke="none">
<path d="M2140 11131 c0 -1530 2 -2781 5 -2781 3 0 22 10 43 23 20 13 44 27
52 30 8 4 31 17 50 28 19 12 55 33 80 47 25 14 57 33 72 43 14 11 28 19 31 19
3 0 43 22 89 49 45 27 102 59 124 72 23 13 107 62 187 109 81 47 159 92 174
100 16 8 101 58 191 110 89 52 184 106 210 120 26 14 49 27 52 30 6 6 43 27
90 52 19 10 49 27 65 38 36 23 74 44 117 67 18 9 35 19 38 22 3 3 14 11 25 17
11 6 40 22 65 36 165 94 206 118 215 125 6 4 24 15 40 23 17 8 32 17 35 20 3
3 16 11 30 17 14 7 48 26 75 43 28 17 61 36 75 43 14 6 27 14 30 18 3 3 20 12
38 20 17 8 32 17 32 21 0 5 4 8 9 8 8 0 132 70 206 115 11 7 25 13 30 14 6 1
17 8 25 15 8 8 35 25 60 38 88 49 292 167 303 176 7 5 41 24 77 43 36 18 67
37 70 41 3 4 17 12 30 17 26 11 61 32 70 41 3 3 24 14 47 25 24 11 43 23 43
28 0 4 4 7 9 7 5 0 44 20 85 45 42 25 81 45 85 45 5 0 11 3 13 8 2 4 28 20 58
36 30 16 57 32 60 36 5 6 65 39 117 64 13 6 23 14 23 19 0 4 4 7 9 7 9 0 203
109 211 119 3 3 21 14 40 23 19 10 58 31 85 48 28 16 66 38 85 47 19 10 37 21
38 26 2 4 7 7 12 7 4 0 38 18 74 40 36 22 68 40 70 40 3 0 25 14 49 30 25 17
49 30 55 30 5 0 15 7 22 15 7 9 15 14 17 11 2 -2 36 16 76 40 39 24 77 44 84
44 7 0 13 4 13 9 0 5 18 17 40 27 22 10 40 22 40 27 0 4 5 5 10 2 6 -3 10 -1
10 4 0 6 7 11 15 11 13 0 15 -24 16 -152 0 -84 0 -166 -1 -183 -1 -16 -2 -34
-2 -40 0 -9 1 -869 1 -920 0 -23 0 -622 0 -645 0 -8 0 -152 0 -320 0 -168 0
-312 0 -320 0 -8 0 -152 0 -320 0 -168 0 -312 0 -320 0 -8 0 -249 -1 -535 0
-286 0 -524 0 -530 1 -8 1 -386 1 -530 0 -11 0 -121 0 -245 0 -124 0 -229 -1
-235 0 -15 1 -185 2 -226 1 -36 0 -37 -111 -100 -62 -35 -137 -79 -168 -97
-31 -18 -67 -38 -81 -45 -14 -6 -31 -17 -38 -24 -7 -7 -20 -13 -28 -13 -8 0
-14 -4 -14 -10 0 -5 -4 -10 -10 -10 -5 0 -38 -17 -72 -38 -35 -20 -76 -44 -93
-52 -16 -8 -32 -18 -35 -21 -3 -4 -27 -19 -55 -33 -27 -15 -63 -35 -80 -45
-44 -27 -103 -60 -165 -94 -30 -17 -56 -34 -58 -39 -2 -4 -8 -8 -13 -8 -9 0
-326 -181 -370 -211 -14 -10 -29 -16 -32 -12 -4 3 -9 -2 -13 -11 -3 -9 -13
-16 -22 -16 -8 0 -23 -6 -31 -14 -9 -7 -41 -27 -71 -43 -60 -33 -206 -117
-230 -133 -8 -6 -22 -13 -30 -17 -8 -4 -31 -16 -50 -28 -19 -12 -55 -33 -80
-47 -25 -14 -117 -67 -205 -118 -88 -51 -176 -102 -195 -113 -116 -66 -158
-90 -185 -106 -116 -69 -227 -131 -235 -131 -6 0 -10 -4 -10 -10 0 -5 -6 -10
-14 -10 -8 0 -21 -6 -28 -13 -7 -7 -28 -20 -45 -28 -18 -7 -33 -17 -33 -21 0
-5 -5 -8 -10 -8 -6 0 -40 -18 -76 -40 -36 -22 -68 -40 -71 -40 -2 0 -27 -15
-56 -33 -29 -18 -68 -41 -87 -51 -19 -9 -64 -35 -100 -57 -36 -22 -73 -42 -82
-45 -10 -4 -18 -11 -18 -16 0 -5 -4 -6 -10 -3 -5 3 -10 3 -10 -2 0 -4 -10 -13
-23 -19 -48 -25 -103 -56 -132 -74 -16 -11 -47 -27 -67 -37 -21 -10 -38 -21
-38 -25 0 -5 -4 -8 -9 -8 -9 0 -173 -91 -181 -100 -3 -4 -26 -17 -52 -30 -27
-13 -48 -28 -48 -33 0 -6 -3 -8 -6 -4 -3 3 -35 -12 -70 -34 -35 -21 -66 -39
-69 -39 -4 0 -71 -40 -130 -78 -11 -6 -27 -15 -35 -19 -8 -4 -37 -20 -65 -36
-27 -17 -66 -39 -85 -50 -19 -11 -48 -28 -65 -38 -16 -10 -39 -23 -50 -29 -11
-5 -42 -23 -70 -40 -27 -17 -58 -33 -67 -36 -10 -4 -18 -10 -18 -15 0 -5 -6
-9 -13 -9 -7 0 -29 -11 -48 -25 -20 -13 -39 -21 -43 -18 -3 4 -6 0 -6 -9 0 -8
10 -20 23 -26 12 -6 45 -24 72 -40 274 -159 345 -200 378 -217 20 -11 37 -23
37 -28 0 -4 4 -6 9 -2 5 3 13 0 16 -5 4 -6 17 -15 28 -21 12 -5 29 -13 37 -19
50 -32 223 -130 231 -130 5 0 9 -5 9 -12 0 -6 3 -9 6 -5 3 3 29 -9 57 -27 29
-18 59 -36 67 -39 8 -4 33 -18 55 -32 22 -14 49 -30 60 -35 11 -6 35 -19 53
-30 46 -28 387 -225 479 -276 23 -13 92 -53 153 -89 61 -36 115 -65 121 -65 5
0 9 -4 9 -9 0 -5 8 -11 18 -14 19 -7 95 -49 114 -64 7 -6 38 -24 68 -40 30
-17 95 -53 144 -82 49 -28 93 -51 97 -51 5 0 9 -3 9 -8 0 -4 20 -16 45 -27 25
-11 45 -23 45 -27 0 -3 21 -16 47 -29 27 -12 61 -32 78 -43 27 -19 79 -48 142
-80 13 -6 23 -14 23 -18 0 -5 5 -8 11 -8 6 0 76 -38 155 -85 79 -47 152 -89
162 -92 15 -6 39 -21 117 -71 11 -7 32 -18 48 -25 15 -6 27 -15 27 -19 0 -4 4
-8 9 -8 9 0 222 -119 231 -129 3 -3 21 -14 40 -23 39 -19 92 -50 100 -58 3 -3
16 -11 30 -18 14 -7 48 -26 75 -42 28 -16 59 -34 70 -40 11 -5 38 -21 60 -35
22 -14 47 -28 55 -32 8 -3 31 -16 50 -28 19 -12 55 -33 80 -47 48 -27 75 -42
180 -103 36 -21 85 -49 110 -63 25 -14 47 -28 50 -31 3 -3 12 -7 20 -9 8 -2
17 -8 18 -13 2 -5 8 -9 13 -9 5 0 54 -27 110 -60 55 -33 105 -60 110 -60 5 0
9 -4 9 -8 0 -4 12 -13 28 -20 15 -6 46 -23 70 -36 l43 -25 39 22 c22 11 40 25
40 29 0 5 4 7 9 4 5 -3 24 5 43 18 19 13 66 41 104 62 38 21 71 42 72 46 2 4
7 8 12 8 7 0 133 70 245 137 28 16 57 32 65 36 8 4 29 15 45 26 30 18 75 44
143 82 20 12 62 36 93 55 31 19 62 34 68 34 6 0 11 4 11 8 0 5 23 19 50 32 28
13 50 26 50 30 0 3 18 14 39 23 22 10 54 28 73 40 18 13 48 30 66 38 17 7 32
17 32 21 0 5 4 8 9 8 8 0 117 60 181 100 8 5 33 19 55 31 22 11 42 24 45 28 3
3 21 14 40 24 19 9 51 27 70 38 19 12 56 33 82 46 27 14 48 30 48 36 0 6 3 7
7 4 3 -4 11 -3 17 2 6 5 28 18 49 30 20 12 54 31 75 42 20 12 62 36 92 52 30
17 66 38 79 49 13 10 30 18 37 18 8 0 14 5 14 10 0 6 6 10 14 10 7 0 25 9 40
21 14 11 26 17 26 12 0 -4 4 -3 8 3 4 6 59 40 122 75 63 35 121 69 128 76 7 7
19 13 26 13 7 0 23 10 36 23 14 12 25 20 25 18 0 -4 61 28 95 49 50 31 170
100 175 100 2 0 28 15 58 33 85 52 90 55 142 83 28 15 52 29 55 33 3 3 23 15
45 26 22 11 43 24 46 28 3 5 14 9 23 11 10 1 21 7 24 12 7 9 27 20 117 67 22
12 46 27 53 34 7 7 19 13 27 13 7 0 15 4 17 8 3 7 67 45 153 90 17 9 36 22 43
29 13 12 27 17 45 14 4 0 7 3 7 8 0 8 32 27 115 69 17 9 32 18 35 21 3 3 16
12 29 19 13 8 40 23 60 35 20 11 49 27 64 36 16 9 36 21 45 26 9 6 44 25 77
44 33 19 63 39 66 44 3 5 8 8 10 6 4 -2 57 26 124 66 22 14 49 29 60 35 11 5
27 14 35 20 14 9 84 50 160 93 19 10 70 40 113 64 l77 45 0 2782 0 2782 -92
54 c-141 80 -150 85 -198 114 -25 15 -53 29 -62 33 -10 3 -18 8 -18 12 0 4
-16 13 -35 21 -19 8 -35 17 -35 21 0 4 -9 11 -21 14 -26 8 -123 67 -127 78 -2
4 -12 7 -22 7 -10 0 -22 5 -25 11 -4 5 -17 14 -28 19 -12 5 -44 23 -72 40 -27
17 -58 33 -67 37 -10 3 -18 8 -18 12 0 4 -16 13 -35 21 -19 8 -35 18 -35 22 0
5 -4 6 -10 3 -5 -3 -10 -2 -10 4 0 6 -11 13 -25 17 -14 3 -25 10 -25 15 0 5
-4 9 -10 9 -5 0 -33 14 -62 31 -80 48 -119 70 -163 93 -22 12 -42 23 -45 26
-3 3 -39 25 -80 48 -41 24 -82 47 -90 53 -8 5 -26 15 -40 21 -14 7 -27 15 -30
18 -6 6 -35 23 -99 56 -24 13 -49 28 -55 33 -6 4 -31 20 -56 33 -65 36 -171
98 -200 116 -14 9 -27 17 -30 17 -3 0 -48 26 -100 56 -52 31 -122 71 -155 90
-33 18 -61 37 -63 41 -2 4 -8 8 -13 8 -7 0 -101 53 -207 115 -41 25 -82 45
-88 44 -4 0 -11 6 -16 15 -5 9 -13 16 -18 16 -4 0 -107 57 -227 126 -120 70
-238 138 -263 152 -25 13 -49 28 -55 32 -5 4 -30 19 -55 32 -61 34 -105 59
-168 97 -29 17 -57 31 -62 31 -6 0 -10 4 -10 8 0 4 -12 13 -27 20 -16 6 -44
21 -63 33 -111 68 -360 209 -369 209 -5 0 -11 4 -13 8 -1 4 -54 36 -115 71
-62 34 -115 67 -119 72 -3 5 -14 9 -25 9 -10 0 -19 5 -19 10 0 6 -18 17 -40
26 -22 9 -40 19 -40 23 0 4 -16 13 -35 21 -19 8 -35 16 -35 19 0 4 -15 12 -32
20 -18 8 -40 19 -48 26 -8 7 -46 29 -85 50 -38 21 -72 41 -75 44 -3 3 -21 14
-40 23 -19 10 -62 34 -95 53 -33 20 -79 45 -103 57 -23 12 -42 26 -42 30 0 4
-4 8 -10 8 -5 0 -47 23 -94 50 -47 28 -89 50 -95 50 -6 0 -11 5 -11 10 0 6 -4
10 -9 10 -7 0 -67 32 -111 60 -30 19 -316 184 -355 204 -22 12 -41 24 -43 29
-2 4 -10 7 -18 7 -8 0 -14 4 -14 8 0 4 -16 14 -35 21 -19 7 -35 17 -35 22 0 5
-5 9 -10 9 -6 0 -99 52 -209 115 -109 63 -204 115 -210 115 -6 0 -11 4 -11 9
0 5 -16 16 -35 25 -19 9 -37 21 -40 26 -4 6 -11 8 -16 5 -5 -4 -9 -2 -9 3 0 5
-8 12 -17 15 -10 3 -40 20 -68 36 -27 17 -60 35 -73 41 -13 5 -30 17 -39 25
-8 8 -18 13 -23 10 -5 -3 -10 -1 -12 4 -1 4 -127 79 -278 166 -353 204 -489
282 -559 323 -31 18 -64 35 -73 39 -10 3 -18 9 -18 14 0 5 -5 9 -10 9 -6 0
-38 17 -73 38 -34 20 -76 44 -92 52 -17 8 -32 18 -35 21 -3 3 -38 23 -77 44
-40 22 -73 42 -73 46 0 4 -12 10 -27 14 -15 3 -30 10 -33 14 -4 7 -41 28 -145
85 -11 6 -22 13 -25 16 -5 5 -41 26 -100 57 -19 10 -37 20 -40 23 -3 3 -14 10
-25 16 -48 26 -70 39 -75 44 -8 8 -81 48 -112 62 -16 7 -28 16 -28 20 0 4 -5
8 -11 8 -8 0 -189 102 -319 180 -8 5 -95 55 -193 112 -99 57 -204 118 -235
136 -32 18 -65 35 -74 39 -10 3 -18 9 -18 14 0 5 -6 9 -14 9 -8 0 -21 6 -28
13 -7 6 -31 21 -53 33 -22 12 -80 44 -128 73 -49 28 -93 51 -98 51 -5 0 -9 4
-9 9 0 5 -8 11 -17 14 -10 3 -37 17 -60 32 l-43 26 0 -2780z"/>
</g>
</svg>
