<svg xmlns="http://www.w3.org/2000/svg" viewBox="0 0 700 700" >
  <g transform="translate(0,700) scale(0.1,-0.1)">
    <path d="M3187 6109 c-355 -29 -747 -138 -1092 -303 -139 -67 -319 -167 -400 -225 -27 -19 -72 -51 -100 -70 -269 -190 -558 -475 -748 -741 -385 -537 -598 -1146 -624 -1785 -3 -89 -3 -177 1 -197 8 -44 77 -125 123 -144 42 -18 552 -20 604 -3 19 7 51 28 71 47 103 98 86 260 -34 339 -39 27 -48 28 -180 31 l-138 4 0 51 c1 100 58 402 105 547 124 388 324 755 557 1025 5 5 43 -25 96 -77 124 -123 196 -151 288 -112 63 26 93 53 119 105 54 106 26 195 -99 319 -42 41 -76 79 -76 84 0 11 1 12 141 117 184 138 380 253 559 329 41 17 84 35 95 40 84 39 306 104 490 144 89 20 315 47 326 40 5 -3 9 -59 9 -125 0 -134 11 -172 63 -228 111 -117 299 -80 361 71 12 27 16 72 16 157 0 66 4 122 9 125 9 6 233 -19 301 -34 189 -41 344 -85 460 -130 30 -12 71 -27 91 -35 185 -68 446 -220 653 -379 107 -83 106 -82 106 -92 0 -5 -34 -43 -76 -84 -99 -98 -127 -153 -122 -235 5 -82 43 -139 118 -177 110 -55 176 -35 307 95 56 55 96 87 101 82 210 -243 397 -567 510 -885 42 -118 63 -186 78 -250 7 -30 17 -73 23 -95 21 -85 43 -224 48 -307 l6 -86 -140 -4 c-133 -3 -142 -4 -181 -31 -84 -55 -122 -161 -92 -253 17 -52 84 -121 129 -134 58 -16 564 -13 604 4 46 19 115 100 123 144 19 99 -17 495 -65 727 -155 740 -565 1407 -1156 1881 -55 44 -124 97 -152 117 -29 20 -74 52 -100 70 -69 48 -241 146 -368 209 -346 172 -758 287 -1139 318 -146 11 -463 11 -609 -1z" />
    <path d="M1494 2940 c-61 -24 -85 -117 -41 -163 26 -29 75 -55 939 -491 423 -214 669 -343 672 -354 2 -9 10 -42 16 -72 22 -98 108 -213 200 -268 246 -146 561 -15 641 267 24 84 24 129 -1 220 -48 172 -179 289 -359 322 -57 10 -78 9 -140 -5 -72 -16 -164 -56 -176 -76 -9 -14 -31 -13 -68 4 -30 13 -114 46 -279 110 -98 37 -193 74 -268 103 -36 14 -92 36 -125 48 -33 13 -102 39 -152 59 -51 20 -96 36 -99 36 -3 0 -20 6 -37 14 -18 8 -62 26 -99 40 -95 36 -159 61 -441 170 -120 47 -145 52 -183 36z" />
    <path d="M254 2156 l-34 -34 0 -482 0 -483 36 -33 35 -34 247 0 c227 0 250 2 279 20 17 10 37 29 43 41 18 32 6 107 -19 133 -20 20 -33 21 -211 24 l-190 3 0 110 0 109 181 0 181 0 34 34 c46 46 48 101 5 148 l-29 33 -184 5 -183 5 -3 108 -3 107 176 0 c192 0 227 8 245 56 15 38 12 87 -6 112 -34 48 -56 52 -320 52 l-246 0 -34 -34z" />
    <path d="M6175 2170 c-16 -11 -33 -27 -37 -37 -3 -10 -7 -229 -7 -488 -1 -359 2 -476 12 -495 7 -14 28 -34 48 -44 44 -24 80 -16 120 24 l29 28 0 186 0 186 184 0 185 0 35 34 c48 45 50 100 7 148 l-29 33 -189 5 -188 5 0 105 0 105 188 5 189 5 29 33 c50 56 36 133 -31 167 -23 12 -76 15 -272 15 -225 0 -245 -2 -273 -20z" />
  </g>
</svg>
